<svg width="17" height="51" viewBox="0 0 17 51" fill="none" xmlns="http://www.w3.org/2000/svg">
<mask id="path-1-outside-1_33_22" maskUnits="userSpaceOnUse" x="-1" y="-0.5" width="19" height="52" fill="black">
<rect fill="white" x="-1" y="-0.5" width="19" height="52"/>
<path d="M0.448 9.7V0.927998H16.836V50.5H7.044V9.7H0.448Z"/>
</mask>
<path d="M0.448 9.7H-0.552V10.7H0.448V9.7ZM0.448 0.927998V-0.0720024H-0.552V0.927998H0.448ZM16.836 0.927998H17.836V-0.0720024H16.836V0.927998ZM16.836 50.5V51.5H17.836V50.5H16.836ZM7.044 50.5H6.044V51.5H7.044V50.5ZM7.044 9.7H8.044V8.7H7.044V9.7ZM1.448 9.7V0.927998H-0.552V9.7H1.448ZM0.448 1.928H16.836V-0.0720024H0.448V1.928ZM15.836 0.927998V50.5H17.836V0.927998H15.836ZM16.836 49.5H7.044V51.5H16.836V49.5ZM8.044 50.5V9.7H6.044V50.5H8.044ZM7.044 8.7H0.448V10.7H7.044V8.7Z" fill="white" mask="url(#path-1-outside-1_33_22)"/>
</svg>
