<svg width="26" height="27" viewBox="0 0 26 27" fill="none" xmlns="http://www.w3.org/2000/svg">
<circle cx="13" cy="13.5" r="13" fill="#FFE8CE"/>
<path d="M13.4058 10.5451C12.7092 10.5451 12.3042 10.8348 12.3042 11.2838C12.3042 12.6599 17.65 11.588 17.65 15.2816C17.65 17.2515 15.7223 18.7 12.5958 18.7C9.43692 18.7 7.84938 17.295 7.80078 15.1513H11.2836C11.3322 15.9769 11.8668 16.4549 12.7416 16.4549C13.6164 16.4549 14.1347 16.1507 14.1347 15.5858C14.1347 14.1808 8.80514 15.0933 8.80514 11.6604C8.80514 9.86435 10.3441 8.3 13.7136 8.3C16.5322 8.3 18.2008 9.61811 18.2008 11.7039H14.7341C14.6693 10.9507 14.3129 10.5451 13.4058 10.5451Z" fill="#FC8A06"/>
</svg>
