<svg width="34" height="51" viewBox="0 0 34 51" fill="none" xmlns="http://www.w3.org/2000/svg">
<mask id="path-1-outside-1_33_7" maskUnits="userSpaceOnUse" x="-2" y="-0.5" width="37" height="53" fill="black">
<rect fill="white" x="-2" y="-0.5" width="37" height="53"/>
<path d="M3.596 40.756C7.948 37.1293 11.416 34.1147 14 31.712C16.584 29.264 18.7373 26.7253 20.46 24.096C22.1827 21.4667 23.044 18.8827 23.044 16.344C23.044 14.032 22.5 12.2187 21.412 10.904C20.324 9.58933 18.6467 8.932 16.38 8.932C14.1133 8.932 12.368 9.70266 11.144 11.244C9.92 12.74 9.28533 14.8027 9.24 17.432H-0.00799976C0.173333 11.992 1.78267 7.86666 4.82 5.056C7.90267 2.24533 11.8013 0.839996 16.516 0.839996C21.684 0.839996 25.6507 2.22266 28.416 4.988C31.1813 7.708 32.564 11.312 32.564 15.8C32.564 19.336 31.612 22.7133 29.708 25.932C27.804 29.1507 25.628 31.9613 23.18 34.364C20.732 36.7213 17.536 39.5773 13.592 42.932H33.652V50.82H0.0600001V43.748L3.596 40.756Z"/>
</mask>
<path d="M3.596 40.756L2.9558 39.9878L2.95006 39.9926L3.596 40.756ZM14 31.712L14.681 32.4444L14.6877 32.438L14 31.712ZM20.46 24.096L21.2965 24.644L20.46 24.096ZM21.412 10.904L20.6416 11.5416L21.412 10.904ZM11.144 11.244L11.918 11.8772L11.9226 11.8716L11.9271 11.8659L11.144 11.244ZM9.24 17.432V18.432H10.2229L10.2399 17.4492L9.24 17.432ZM-0.00799966 17.432L-1.00744 17.3987L-1.04189 18.432H-0.00799966V17.432ZM4.82 5.056L4.14623 4.31702L4.14081 4.32203L4.82 5.056ZM28.416 4.988L27.7089 5.69513L27.7148 5.70093L28.416 4.988ZM29.708 25.932L30.5687 26.4411L29.708 25.932ZM23.18 34.364L23.8737 35.0844L23.8805 35.0777L23.18 34.364ZM13.592 42.932L12.9441 42.1703L10.8729 43.932H13.592V42.932ZM33.652 42.932H34.652V41.932H33.652V42.932ZM33.652 50.82V51.82H34.652V50.82H33.652ZM0.0600002 50.82H-0.94V51.82H0.0600002V50.82ZM0.0600002 43.748L-0.585942 42.9846L-0.94 43.2842V43.748H0.0600002ZM4.23618 41.5242C8.59487 37.892 12.0782 34.8644 14.6809 32.4443L13.3191 30.9797C10.7538 33.3649 7.30113 36.3667 2.95582 39.9878L4.23618 41.5242ZM14.6877 32.438C17.3208 29.9435 19.5261 27.3461 21.2965 24.644L19.6235 23.548C17.9485 26.1045 15.8472 28.5845 13.3123 30.986L14.6877 32.438ZM21.2965 24.644C23.1003 21.8907 24.044 19.1192 24.044 16.344H22.044C22.044 18.6461 21.265 21.0426 19.6235 23.548L21.2965 24.644ZM24.044 16.344C24.044 13.8818 23.4641 11.8151 22.1824 10.2664L20.6416 11.5416C21.5359 12.6222 22.044 14.1822 22.044 16.344H24.044ZM22.1824 10.2664C20.8466 8.65237 18.8402 7.932 16.38 7.932V9.932C18.4531 9.932 19.8014 10.5263 20.6416 11.5416L22.1824 10.2664ZM16.38 7.932C13.8604 7.932 11.8048 8.80386 10.3609 10.6221L11.9271 11.8659C12.9312 10.6015 14.3663 9.932 16.38 9.932V7.932ZM10.37 10.6108C8.95989 12.3343 8.28797 14.641 8.24015 17.4148L10.2399 17.4492C10.2827 14.9644 10.8801 13.1457 11.918 11.8772L10.37 10.6108ZM9.24 16.432H-0.00799966V18.432H9.24V16.432ZM0.991445 17.4653C1.1668 12.2047 2.71398 8.36732 5.49919 5.78996L4.14081 4.32203C0.851356 7.36601 -0.820131 11.7793 -1.00744 17.3987L0.991445 17.4653ZM5.49375 5.79495C8.36798 3.17434 12.0157 1.84 16.516 1.84V-0.160004C11.5869 -0.160004 7.43736 1.31632 4.14625 4.31704L5.49375 5.79495ZM16.516 1.84C21.5071 1.84 25.1855 3.1717 27.7089 5.6951L29.1231 4.28089C26.1158 1.27362 21.8609 -0.160004 16.516 -0.160004V1.84ZM27.7148 5.70093C30.2587 8.20315 31.564 11.5344 31.564 15.8H33.564C33.564 11.0896 32.104 7.21285 29.1172 4.27507L27.7148 5.70093ZM31.564 15.8C31.564 19.1464 30.6656 22.3491 28.8473 25.4229L30.5687 26.4411C32.5584 23.0775 33.564 19.5256 33.564 15.8H31.564ZM28.8473 25.4229C26.9836 28.5734 24.8601 31.3138 22.4795 33.6503L23.8805 35.0777C26.3959 32.6089 28.6244 29.728 30.5687 26.4411L28.8473 25.4229ZM22.4864 33.6437C20.0587 35.9814 16.8796 38.8228 12.9441 42.1703L14.2399 43.6937C18.1924 40.3318 21.4053 37.4612 23.8736 35.0843L22.4864 33.6437ZM13.592 43.932H33.652V41.932H13.592V43.932ZM32.652 42.932V50.82H34.652V42.932H32.652ZM33.652 49.82H0.0600002V51.82H33.652V49.82ZM1.06 50.82V43.748H-0.94V50.82H1.06ZM0.705942 44.5114L4.24194 41.5194L2.95006 39.9926L-0.585942 42.9846L0.705942 44.5114Z" fill="white" mask="url(#path-1-outside-1_33_7)"/>
</svg>
